<?xml version="1.0" encoding="UTF-8" standalone="no"?>
<svg
   xmlns:dc="http://purl.org/dc/elements/1.1/"
   xmlns:cc="http://creativecommons.org/ns#"
   xmlns:rdf="http://www.w3.org/1999/02/22-rdf-syntax-ns#"
   xmlns:svg="http://www.w3.org/2000/svg"
   xmlns="http://www.w3.org/2000/svg"
   xmlns:sodipodi="http://sodipodi.sourceforge.net/DTD/sodipodi-0.dtd"
   xmlns:inkscape="http://www.inkscape.org/namespaces/inkscape"
   width="367.94086"
   height="291.53"
   viewBox="0 0 367.94086 291.53"
   version="1.1"
   id="svg18"
   sodipodi:docname="radio-sharp.svg"
   inkscape:version="0.92.4 (5da689c313, 2019-01-14)">
  <metadata
     id="metadata24">
    <rdf:RDF>
      <cc:Work
         rdf:about="">
        <dc:format>image/svg+xml</dc:format>
        <dc:type
           rdf:resource="http://purl.org/dc/dcmitype/StillImage" />
        <dc:title>ionicons-v5-p</dc:title>
      </cc:Work>
    </rdf:RDF>
  </metadata>
  <defs
     id="defs22" />
  <sodipodi:namedview
     pagecolor="#ffffff"
     bordercolor="#666666"
     borderopacity="1"
     objecttolerance="10"
     gridtolerance="10"
     guidetolerance="10"
     inkscape:pageopacity="0"
     inkscape:pageshadow="2"
     inkscape:window-width="820"
     inkscape:window-height="480"
     id="namedview20"
     showgrid="false"
     fit-margin-top="0"
     fit-margin-left="0"
     fit-margin-right="0"
     fit-margin-bottom="0"
     inkscape:zoom="0.4609375"
     inkscape:cx="336.63475"
     inkscape:cy="145.76"
     inkscape:window-x="1042"
     inkscape:window-y="159"
     inkscape:window-maximized="0"
     inkscape:current-layer="svg18" />
  <title
     id="title2">ionicons-v5-p</title>
  <ellipse
     cx="183.97043"
     cy="145.77"
     rx="36"
     ry="35.990002"
     id="ellipse4"
     style="fill:#ffffff" />
  <path
     d="m 116.37042,240.57 -14.62,-16.44 a 117.91,117.91 0 0 1 0,-156.71 l 14.62,-16.43 32.87,29.24 -14.62,16.43 a 73.93,73.93 0 0 0 0,98.25 l 14.62,16.44 z"
     id="path6"
     style="fill:#ffffff"
     inkscape:connector-curvature="0" />
  <path
     d="m 251.57042,240.57 -32.89,-29.22 14.62,-16.44 a 73.93,73.93 0 0 0 0,-98.25 l -14.62,-16.43 32.87,-29.24 14.62,16.43 a 117.91,117.91 0 0 1 0,156.71 z"
     id="path8"
     style="fill:#ffffff"
     inkscape:connector-curvature="0" />
  <path
     d="m 66.210422,291.53 -15,-16.06 a 189.85,189.85 0 0 1 0,-259.4 l 15,-16.07 32.14,30.05 -15,16.06 a 145.88,145.88 0 0 0 0,199.32 l 15,16.06 z"
     id="path10"
     style="fill:#ffffff"
     inkscape:connector-curvature="0" />
  <path
     d="m 301.73042,291.53 -32.14,-30 15,-16.06 a 145.88,145.88 0 0 0 0,-199.32 l -15,-16.06 32.14,-30 15,16.07 a 189.85,189.85 0 0 1 0,259.4 z"
     id="path12"
     style="fill:#ffffff"
     inkscape:connector-curvature="0" />
</svg>
